<?xml version="1.0" encoding="UTF-8" standalone="no"?>
<!-- Created with Inkscape (http://www.inkscape.org/) -->

<svg
   xmlns:dc="http://purl.org/dc/elements/1.1/"
   xmlns:cc="http://creativecommons.org/ns#"
   xmlns:rdf="http://www.w3.org/1999/02/22-rdf-syntax-ns#"
   xmlns:svg="http://www.w3.org/2000/svg"
   xmlns="http://www.w3.org/2000/svg"
   xmlns:sodipodi="http://sodipodi.sourceforge.net/DTD/sodipodi-0.dtd"
   xmlns:inkscape="http://www.inkscape.org/namespaces/inkscape"
   width="512"
   height="512"
   id="svg2816"
   version="1.1"
   inkscape:version="0.47 r22583"
   sodipodi:docname="ApplicationIcon.svg"
   inkscape:export-filename="/Users/mark/Documents/Projects/RateThatSong/ApplicationIcon256.png"
   inkscape:export-xdpi="45"
   inkscape:export-ydpi="45"
   enable-background="new">
  <defs
     id="defs2818">
    <linearGradient
       id="linearGradient3809">
      <stop
         style="stop-color:#22b10d;stop-opacity:1;"
         offset="0"
         id="stop3811" />
      <stop
         style="stop-color:#22b10d;stop-opacity:0;"
         offset="1"
         id="stop3813" />
    </linearGradient>
    <inkscape:path-effect
       effect="spiro"
       id="path-effect2830"
       is_visible="true" />
    <inkscape:perspective
       sodipodi:type="inkscape:persp3d"
       inkscape:vp_x="0 : 8 : 1"
       inkscape:vp_y="0 : 1000 : 0"
       inkscape:vp_z="16 : 8 : 1"
       inkscape:persp3d-origin="8 : 5.3333333 : 1"
       id="perspective2824" />
    <inkscape:perspective
       id="perspective3619"
       inkscape:persp3d-origin="0.5 : 0.33333333 : 1"
       inkscape:vp_z="1 : 0.5 : 1"
       inkscape:vp_y="0 : 1000 : 0"
       inkscape:vp_x="0 : 0.5 : 1"
       sodipodi:type="inkscape:persp3d" />
    <inkscape:path-effect
       effect="spiro"
       id="path-effect2830-7"
       is_visible="true" />
    <inkscape:perspective
       id="perspective3682"
       inkscape:persp3d-origin="0.5 : 0.33333333 : 1"
       inkscape:vp_z="1 : 0.5 : 1"
       inkscape:vp_y="0 : 1000 : 0"
       inkscape:vp_x="0 : 0.5 : 1"
       sodipodi:type="inkscape:persp3d" />
    <inkscape:path-effect
       effect="spiro"
       id="path-effect2830-0"
       is_visible="true" />
    <inkscape:perspective
       id="perspective3725"
       inkscape:persp3d-origin="0.5 : 0.33333333 : 1"
       inkscape:vp_z="1 : 0.5 : 1"
       inkscape:vp_y="0 : 1000 : 0"
       inkscape:vp_x="0 : 0.5 : 1"
       sodipodi:type="inkscape:persp3d" />
    <filter
       inkscape:collect="always"
       id="filter3793"
       x="-0.15679887"
       width="1.3135977"
       y="-0.13904394"
       height="1.2780879">
      <feGaussianBlur
         inkscape:collect="always"
         stdDeviation="9.1239494"
         id="feGaussianBlur3795" />
    </filter>
    <filter
       inkscape:collect="always"
       id="filter3797">
      <feGaussianBlur
         inkscape:collect="always"
         stdDeviation="0.27153765"
         id="feGaussianBlur3799" />
    </filter>
    <filter
       inkscape:collect="always"
       id="filter3801">
      <feGaussianBlur
         inkscape:collect="always"
         stdDeviation="0.82944994"
         id="feGaussianBlur3803" />
    </filter>
    <filter
       inkscape:collect="always"
       id="filter3805">
      <feGaussianBlur
         inkscape:collect="always"
         stdDeviation="0.024685241"
         id="feGaussianBlur3807" />
    </filter>
  </defs>
  <sodipodi:namedview
     id="base"
     pagecolor="#ffffff"
     bordercolor="#666666"
     borderopacity="1.0"
     inkscape:pageopacity="0.0"
     inkscape:pageshadow="2"
     inkscape:zoom="0.92382812"
     inkscape:cx="256.54123"
     inkscape:cy="256"
     inkscape:current-layer="layer1"
     showgrid="true"
     inkscape:grid-bbox="true"
     inkscape:document-units="px"
     inkscape:window-width="1010"
     inkscape:window-height="721"
     inkscape:window-x="24"
     inkscape:window-y="20"
     inkscape:window-maximized="0" />
  <metadata
     id="metadata2821">
    <rdf:RDF>
      <cc:Work
         rdf:about="">
        <dc:format>image/svg+xml</dc:format>
        <dc:type
           rdf:resource="http://purl.org/dc/dcmitype/StillImage" />
        <dc:title></dc:title>
      </cc:Work>
    </rdf:RDF>
  </metadata>
  <g
     transform="translate(0,496)"
     inkscape:groupmode="layer"
     inkscape:label="shadow"
     id="g3685"
     style="display:inline"
     sodipodi:insensitive="true">
    <path
       sodipodi:nodetypes="cca"
       id="path3687"
       d="m 332.89804,-93.440972 c 0,0 38.13384,29.788698 56.30047,57.968538 2.84794,-138.510906 83.35282,-157.486036 83.35282,-157.486036"
       style="fill:none;stroke:#000000;stroke-width:30.05599976;stroke-linecap:round;stroke-linejoin:round;stroke-miterlimit:4;stroke-opacity:1;stroke-dasharray:none;filter:url(#filter3793)" />
    <g
       transform="matrix(33.601047,0,0,33.601047,-3.708439,-416.30066)"
       id="g3689"
       style="filter:url(#filter3797)">
      <path
         id="path3691"
         style="fill:none;stroke:#000000;stroke-width:0.95429033;stroke-linecap:round;stroke-linejoin:round;stroke-miterlimit:4;stroke-opacity:1;stroke-dasharray:none"
         inkscape:path-effect="#path-effect2830-0"
         inkscape:original-d="m 11.157114,5.01431 c 0,0.9431204 -0.775243,1.7076703 -1.731554,1.7076703 -0.956311,0 -1.731554,-0.7645499 -1.731554,-1.7076703 0,-0.9431204 0.775243,-1.7076708 1.731554,-1.7076708 0.956311,0 1.731554,0.7645504 1.731554,1.7076708 z m -6.343056,1.2757727 0.07979,-6.1765815 6.241936,-1.2104815 0.04521,6.0515815 M 4.790178,6.3497915 c 0,0.9431204 -0.775243,1.7076703 -1.731554,1.7076703 -0.956311,0 -1.731554,-0.7645499 -1.731554,-1.7076703 0,-0.9431204 0.775243,-1.7076708 1.731554,-1.7076708 0.956311,0 1.731554,0.7645504 1.731554,1.7076708 z"
         d="m 11.157114,5.01431 c 0,0.4502061 -0.189933,0.89664 -0.511438,1.2117908 C 10.324171,6.5412516 9.8757661,6.7219803 9.42556,6.7219803 8.9753539,6.7219803 8.5269492,6.5412516 8.2054441,6.2261008 7.883939,5.91095 7.6940061,5.4645161 7.694006,5.01431 7.6940059,4.5641038 7.8839388,4.1176698 8.2054439,3.8025189 8.526949,3.487368 8.9753538,3.3066392 9.42556,3.3066392 c 0.4502062,0 0.898611,0.1807288 1.220116,0.4958797 0.321505,0.3151509 0.511438,0.7615849 0.511438,1.2117911 m -6.343056,1.2757727 0.07979,-6.1765815 6.241936,-1.2104815 0.04521,6.0515815 M 4.790178,6.3497915 c -1e-7,0.4502061 -0.189933,0.89664 -0.5114381,1.2117908 C 3.9572348,7.8767331 3.5088301,8.0574618 3.058624,8.0574618 2.6084179,8.0574618 2.1600132,7.8767331 1.8385081,7.5615823 1.517003,7.2464315 1.3270701,6.7999976 1.32707,6.3497915 1.3270699,5.8995853 1.5170028,5.4531513 1.8385079,5.1380004 2.160013,4.8228495 2.6084178,4.6421207 3.058624,4.6421207 c 0.4502062,0 0.898611,0.1807288 1.2201161,0.4958797 0.3215051,0.3151509 0.511438,0.7615849 0.5114379,1.2117911"
         sodipodi:nodetypes="csssccccccsssc" />
      <path
         sodipodi:type="arc"
         style="fill:#000000;fill-opacity:1;stroke:#000000;stroke-width:1.79999995;stroke-linecap:round;stroke-linejoin:round;stroke-miterlimit:4;stroke-opacity:1;stroke-dasharray:none"
         id="path3693"
         sodipodi:cx="15.4375"
         sodipodi:cy="5.71875"
         sodipodi:rx="0.9375"
         sodipodi:ry="1.03125"
         d="m 16.375,5.71875 a 0.9375,1.03125 0 1 1 -1.875,0 0.9375,1.03125 0 1 1 1.875,0 z"
         transform="matrix(1.0478193,0,0,0.86165393,-6.8007108,-0.02133339)" />
      <path
         sodipodi:type="arc"
         style="fill:#000000;fill-opacity:1;stroke:#000000;stroke-width:1.79999995;stroke-linecap:round;stroke-linejoin:round;stroke-miterlimit:4;stroke-opacity:1;stroke-dasharray:none"
         id="path3695"
         sodipodi:cx="15.4375"
         sodipodi:cy="5.71875"
         sodipodi:rx="0.9375"
         sodipodi:ry="1.03125"
         d="m 16.375,5.71875 a 0.9375,1.03125 0 1 1 -1.875,0 0.9375,1.03125 0 1 1 1.875,0 z"
         transform="matrix(1.0478193,0,0,0.86165393,-13.17571,1.3849166)" />
    </g>
  </g>
  <g
     id="layer1"
     inkscape:label="foreground"
     inkscape:groupmode="layer"
     transform="translate(0,496)"
     style="display:inline;opacity:1;">
    <path
       style="fill:none;stroke:#22b10d;stroke-width:30.05599976;stroke-linecap:round;stroke-linejoin:round;stroke-miterlimit:4;stroke-opacity:1;stroke-dasharray:none;filter:url(#filter3801)"
       d="m 330.89804,-97.440972 c 0,0 38.13384,29.788698 56.30047,57.968538 2.84794,-138.510906 83.35282,-157.486036 83.35282,-157.486036"
       id="path3608"
       sodipodi:nodetypes="cca" />
    <path
       id="path2828-2"
       style="fill:none;stroke:#f8f80b;stroke-width:0.95429032999999996;stroke-linecap:round;stroke-linejoin:round;stroke-miterlimit:4;stroke-opacity:1;stroke-dasharray:none;filter:url(#filter3805)"
       inkscape:path-effect="#path-effect2830-0"
       inkscape:original-d="m 11.157114,5.01431 c 0,0.9431204 -0.775243,1.7076703 -1.731554,1.7076703 -0.956311,0 -1.731554,-0.7645499 -1.731554,-1.7076703 0,-0.9431204 0.775243,-1.7076708 1.731554,-1.7076708 0.956311,0 1.731554,0.7645504 1.731554,1.7076708 z m -6.343056,1.2757727 0.07979,-6.1765815 6.241936,-1.2104815 0.04521,6.0515815 M 4.790178,6.3497915 c 0,0.9431204 -0.775243,1.7076703 -1.731554,1.7076703 -0.956311,0 -1.731554,-0.7645499 -1.731554,-1.7076703 0,-0.9431204 0.775243,-1.7076708 1.731554,-1.7076708 0.956311,0 1.731554,0.7645504 1.731554,1.7076708 z"
       d="m 11.157114,5.01431 c 0,0.4502061 -0.189933,0.89664 -0.511438,1.2117908 C 10.324171,6.5412516 9.8757661,6.7219803 9.42556,6.7219803 8.9753539,6.7219803 8.5269492,6.5412516 8.2054441,6.2261008 7.883939,5.91095 7.6940061,5.4645161 7.694006,5.01431 7.6940059,4.5641038 7.8839388,4.1176698 8.2054439,3.8025189 8.526949,3.487368 8.9753538,3.3066392 9.42556,3.3066392 c 0.4502062,0 0.898611,0.1807288 1.220116,0.4958797 0.321505,0.3151509 0.511438,0.7615849 0.511438,1.2117911 m -6.343056,1.2757727 0.07979,-6.1765815 6.241936,-1.2104815 0.04521,6.0515815 M 4.790178,6.3497915 c -1e-7,0.4502061 -0.189933,0.89664 -0.5114381,1.2117908 C 3.9572348,7.8767331 3.5088301,8.0574618 3.058624,8.0574618 2.6084179,8.0574618 2.1600132,7.8767331 1.8385081,7.5615823 1.517003,7.2464315 1.3270701,6.7999976 1.32707,6.3497915 1.3270699,5.8995853 1.5170028,5.4531513 1.8385079,5.1380004 2.160013,4.8228495 2.6084178,4.6421207 3.058624,4.6421207 c 0.4502062,0 0.898611,0.1807288 1.2201161,0.4958797 0.3215051,0.3151509 0.511438,0.7615849 0.5114379,1.2117911"
       sodipodi:nodetypes="csssccccccsssc"
       transform="matrix(33.601047,0,0,33.601047,-5.708439,-420.30066)" />
    <path
       sodipodi:type="arc"
       style="fill:#f8f80b;fill-opacity:1;stroke:#f8f80b;stroke-width:1.79999994999999990;stroke-linecap:round;stroke-linejoin:round;stroke-miterlimit:4;stroke-opacity:1;stroke-dasharray:none;filter:url(#filter3805)"
       id="path3715"
       sodipodi:cx="15.4375"
       sodipodi:cy="5.71875"
       sodipodi:rx="0.9375"
       sodipodi:ry="1.03125"
       d="m 16.375,5.71875 a 0.9375,1.03125 0 1 1 -1.875,0 0.9375,1.03125 0 1 1 1.875,0 z"
       transform="matrix(35.207826,0,0,28.952474,-234.21944,-421.01748)" />
    <path
       sodipodi:type="arc"
       style="fill:#f8f80b;fill-opacity:1;stroke:#f8f80b;stroke-width:1.79999994999999990;stroke-linecap:round;stroke-linejoin:round;stroke-miterlimit:4;stroke-opacity:1;stroke-dasharray:none;filter:url(#filter3805)"
       id="path3715-4"
       sodipodi:cx="15.4375"
       sodipodi:cy="5.71875"
       sodipodi:rx="0.9375"
       sodipodi:ry="1.03125"
       d="m 16.375,5.71875 a 0.9375,1.03125 0 1 1 -1.875,0 0.9375,1.03125 0 1 1 1.875,0 z"
       transform="matrix(35.207826,0,0,28.952474,-448.42609,-373.76601)" />
  </g>
</svg>
