<?xml version="1.0" encoding="UTF-8" standalone="no"?>
<!-- Created with Inkscape (http://www.inkscape.org/) -->

<svg
   xmlns:dc="http://purl.org/dc/elements/1.1/"
   xmlns:cc="http://creativecommons.org/ns#"
   xmlns:rdf="http://www.w3.org/1999/02/22-rdf-syntax-ns#"
   xmlns:svg="http://www.w3.org/2000/svg"
   xmlns="http://www.w3.org/2000/svg"
   xmlns:sodipodi="http://sodipodi.sourceforge.net/DTD/sodipodi-0.dtd"
   xmlns:inkscape="http://www.inkscape.org/namespaces/inkscape"
   width="20"
   height="20"
   id="svg2816"
   version="1.1"
   inkscape:version="0.47 r22583"
   sodipodi:docname="New document 2">
  <defs
     id="defs2818">
    <inkscape:path-effect
       effect="spiro"
       id="path-effect2830"
       is_visible="true" />
    <inkscape:perspective
       sodipodi:type="inkscape:persp3d"
       inkscape:vp_x="0 : 8 : 1"
       inkscape:vp_y="0 : 1000 : 0"
       inkscape:vp_z="16 : 8 : 1"
       inkscape:persp3d-origin="8 : 5.3333333 : 1"
       id="perspective2824" />
    <inkscape:perspective
       id="perspective3619"
       inkscape:persp3d-origin="0.5 : 0.33333333 : 1"
       inkscape:vp_z="1 : 0.5 : 1"
       inkscape:vp_y="0 : 1000 : 0"
       inkscape:vp_x="0 : 0.5 : 1"
       sodipodi:type="inkscape:persp3d" />
    <inkscape:path-effect
       effect="spiro"
       id="path-effect2830-7"
       is_visible="true" />
    <inkscape:perspective
       id="perspective3682"
       inkscape:persp3d-origin="0.5 : 0.33333333 : 1"
       inkscape:vp_z="1 : 0.5 : 1"
       inkscape:vp_y="0 : 1000 : 0"
       inkscape:vp_x="0 : 0.5 : 1"
       sodipodi:type="inkscape:persp3d" />
    <inkscape:path-effect
       effect="spiro"
       id="path-effect2830-0"
       is_visible="true" />
    <inkscape:perspective
       id="perspective3725"
       inkscape:persp3d-origin="0.5 : 0.33333333 : 1"
       inkscape:vp_z="1 : 0.5 : 1"
       inkscape:vp_y="0 : 1000 : 0"
       inkscape:vp_x="0 : 0.5 : 1"
       sodipodi:type="inkscape:persp3d" />
  </defs>
  <sodipodi:namedview
     id="base"
     pagecolor="#ffffff"
     bordercolor="#666666"
     borderopacity="1.0"
     inkscape:pageopacity="0.0"
     inkscape:pageshadow="2"
     inkscape:zoom="8"
     inkscape:cx="12.166832"
     inkscape:cy="11.60396"
     inkscape:current-layer="layer1"
     showgrid="true"
     inkscape:grid-bbox="true"
     inkscape:document-units="px"
     inkscape:window-width="1010"
     inkscape:window-height="721"
     inkscape:window-x="24"
     inkscape:window-y="20"
     inkscape:window-maximized="0" />
  <metadata
     id="metadata2821">
    <rdf:RDF>
      <cc:Work
         rdf:about="">
        <dc:format>image/svg+xml</dc:format>
        <dc:type
           rdf:resource="http://purl.org/dc/dcmitype/StillImage" />
        <dc:title></dc:title>
      </cc:Work>
    </rdf:RDF>
  </metadata>
  <g
     id="layer1"
     inkscape:label="Layer 1"
     inkscape:groupmode="layer"
     transform="translate(0,4)">
    <path
       style="fill:none;stroke:#000000;stroke-width:1px;stroke-linecap:round;stroke-linejoin:round;stroke-opacity:1"
       d="m 13.999152,12.537561 c 0,0 1.492139,1.165602 2.202981,2.268251 0.111437,-5.4197935 2.541473,-7.136443 2.541473,-7.136443"
       id="path3608"
       sodipodi:nodetypes="cca" />
    <g
       id="g3739"
       transform="matrix(1.3147754,0,0,1.3147754,-0.26753545,-0.56516416)">
      <path
         sodipodi:nodetypes="csssccccccsssc"
         d="m 11.157114,5.01431 c 0,0.4502061 -0.189933,0.89664 -0.511438,1.2117908 C 10.324171,6.5412516 9.8757661,6.7219803 9.42556,6.7219803 8.9753539,6.7219803 8.5269492,6.5412516 8.2054441,6.2261008 7.883939,5.91095 7.6940061,5.4645161 7.694006,5.01431 7.6940059,4.5641038 7.8839388,4.1176698 8.2054439,3.8025189 8.526949,3.487368 8.9753538,3.3066392 9.42556,3.3066392 c 0.4502062,0 0.898611,0.1807288 1.220116,0.4958797 0.321505,0.3151509 0.511438,0.7615849 0.511438,1.2117911 m -6.343056,1.2757727 0.07979,-6.1765815 6.241936,-1.2104815 0.04521,6.0515815 M 4.790178,6.3497915 c -1e-7,0.4502061 -0.189933,0.89664 -0.5114381,1.2117908 C 3.9572348,7.8767331 3.5088301,8.0574618 3.058624,8.0574618 2.6084179,8.0574618 2.1600132,7.8767331 1.8385081,7.5615823 1.517003,7.2464315 1.3270701,6.7999976 1.32707,6.3497915 1.3270699,5.8995853 1.5170028,5.4531513 1.8385079,5.1380004 2.160013,4.8228495 2.6084178,4.6421207 3.058624,4.6421207 c 0.4502062,0 0.898611,0.1807288 1.2201161,0.4958797 0.3215051,0.3151509 0.511438,0.7615849 0.5114379,1.2117911"
         inkscape:original-d="m 11.157114,5.01431 c 0,0.9431204 -0.775243,1.7076703 -1.731554,1.7076703 -0.956311,0 -1.731554,-0.7645499 -1.731554,-1.7076703 0,-0.9431204 0.775243,-1.7076708 1.731554,-1.7076708 0.956311,0 1.731554,0.7645504 1.731554,1.7076708 z m -6.343056,1.2757727 0.07979,-6.1765815 6.241936,-1.2104815 0.04521,6.0515815 M 4.790178,6.3497915 c 0,0.9431204 -0.775243,1.7076703 -1.731554,1.7076703 -0.956311,0 -1.731554,-0.7645499 -1.731554,-1.7076703 0,-0.9431204 0.775243,-1.7076708 1.731554,-1.7076708 0.956311,0 1.731554,0.7645504 1.731554,1.7076708 z"
         inkscape:path-effect="#path-effect2830-0"
         style="fill:none;stroke:#000000;stroke-width:0.95429033;stroke-linecap:round;stroke-linejoin:round;stroke-miterlimit:4;stroke-opacity:1;stroke-dasharray:none"
         id="path2828-2" />
      <path
         transform="matrix(1.0478193,0,0,0.86165393,-6.8007108,-0.02133339)"
         d="M 16.375,5.71875 C 16.375,6.2882936 15.955267,6.75 15.4375,6.75 14.919733,6.75 14.5,6.2882936 14.5,5.71875 c 0,-0.5695436 0.419733,-1.03125 0.9375,-1.03125 0.517767,0 0.9375,0.4617064 0.9375,1.03125 z"
         sodipodi:ry="1.03125"
         sodipodi:rx="0.9375"
         sodipodi:cy="5.71875"
         sodipodi:cx="15.4375"
         id="path3715"
         style="fill:#000000;fill-opacity:1;stroke:#000000;stroke-width:1.79999995;stroke-linecap:round;stroke-linejoin:round;stroke-miterlimit:4;stroke-opacity:1;stroke-dasharray:none"
         sodipodi:type="arc" />
      <path
         transform="matrix(1.0478193,0,0,0.86165393,-13.17571,1.3849166)"
         d="M 16.375,5.71875 C 16.375,6.2882936 15.955267,6.75 15.4375,6.75 14.919733,6.75 14.5,6.2882936 14.5,5.71875 c 0,-0.5695436 0.419733,-1.03125 0.9375,-1.03125 0.517767,0 0.9375,0.4617064 0.9375,1.03125 z"
         sodipodi:ry="1.03125"
         sodipodi:rx="0.9375"
         sodipodi:cy="5.71875"
         sodipodi:cx="15.4375"
         id="path3715-4"
         style="fill:#000000;fill-opacity:1;stroke:#000000;stroke-width:1.79999995;stroke-linecap:round;stroke-linejoin:round;stroke-miterlimit:4;stroke-opacity:1;stroke-dasharray:none"
         sodipodi:type="arc" />
    </g>
  </g>
</svg>
